<svg xmlns="http://www.w3.org/2000/svg" viewBox="0 0 1560 320" role="img" aria-label="Folded Dock icon variants">
  <defs>
    <linearGradient id="pageBg" x1="0" y1="0" x2="1560" y2="320" gradientUnits="userSpaceOnUse">
      <stop offset="0" stop-color="#EAF2EF"/>
      <stop offset="1" stop-color="#DDE8E6"/>
    </linearGradient>
    <filter id="tileShadow" x="-20%" y="-20%" width="140%" height="150%">
      <feDropShadow dx="0" dy="18" stdDeviation="18" flood-color="#263C3A" flood-opacity=".18"/>
    </filter>
    <linearGradient id="tileGraphite" x1="28" y1="20" x2="220" y2="230" gradientUnits="userSpaceOnUse">
      <stop offset="0" stop-color="#132022"/>
      <stop offset="1" stop-color="#0B1517"/>
    </linearGradient>
    <linearGradient id="tileSoft" x1="28" y1="20" x2="220" y2="230" gradientUnits="userSpaceOnUse">
      <stop offset="0" stop-color="#F8FCFA"/>
      <stop offset="1" stop-color="#E7F0EE"/>
    </linearGradient>
    <linearGradient id="dockTeal" x1="0" y1="42" x2="0" y2="168" gradientUnits="userSpaceOnUse">
      <stop offset="0" stop-color="#35E9CE"/>
      <stop offset="1" stop-color="#10A79C"/>
    </linearGradient>
    <linearGradient id="foldTeal" x1="0" y1="42" x2="0" y2="168" gradientUnits="userSpaceOnUse">
      <stop offset="0" stop-color="#149B92"/>
      <stop offset="1" stop-color="#0A5F5B"/>
    </linearGradient>
  </defs>

  <rect width="1560" height="320" fill="url(#pageBg)"/>

  <g transform="translate(40 35)">
    <rect x="0" y="0" width="250" height="250" rx="54" fill="url(#tileGraphite)" filter="url(#tileShadow)"/>
    <rect x="54" y="54" width="42" height="142" rx="18" fill="url(#dockTeal)"/>
    <path d="M96 54 L132 76 Q142 82 142 96 L142 208 L96 181 Z" fill="url(#foldTeal)"/>
    <rect x="136" y="72" width="54" height="16" rx="8" fill="#F5FFF9"/>
    <rect x="136" y="117" width="70" height="16" rx="8" fill="#F4B740"/>
    <rect x="136" y="162" width="58" height="16" rx="8" fill="#35D08F"/>
  </g>

  <g transform="translate(300 35)">
    <rect x="0" y="0" width="250" height="250" rx="54" fill="#102022" filter="url(#tileShadow)"/>
    <path d="M54 54 H93 Q106 54 116 63 L143 88 Q151 95 151 107 V197 L115 176 Q96 165 96 142 V54 Z" fill="#0F766E"/>
    <rect x="54" y="54" width="48" height="142" rx="18" fill="#2DD4BF"/>
    <rect x="144" y="72" width="54" height="16" rx="8" fill="#F5FFF9"/>
    <rect x="144" y="117" width="70" height="16" rx="8" fill="#F4B740"/>
    <rect x="144" y="162" width="58" height="16" rx="8" fill="#35D08F"/>
  </g>

  <g transform="translate(560 35)">
    <rect x="0" y="0" width="250" height="250" rx="54" fill="url(#tileSoft)" filter="url(#tileShadow)"/>
    <rect x="53" y="54" width="43" height="142" rx="18" fill="#102022"/>
    <path d="M96 54 L132 76 Q142 82 142 96 L142 206 L96 181 Z" fill="#0F766E"/>
    <rect x="136" y="72" width="54" height="16" rx="8" fill="#102022"/>
    <rect x="136" y="117" width="70" height="16" rx="8" fill="#2DD4BF"/>
    <rect x="136" y="162" width="58" height="16" rx="8" fill="#F4B740"/>
  </g>

  <g transform="translate(820 35)">
    <rect x="0" y="0" width="250" height="250" rx="54" fill="#F3F5EE" filter="url(#tileShadow)"/>
    <path d="M57 56 H94 Q111 56 123 68 L143 88 Q153 98 153 113 V198" fill="none" stroke="#102022" stroke-width="18" stroke-linecap="round" stroke-linejoin="round"/>
    <path d="M57 56 V194" stroke="#2DD4BF" stroke-width="34" stroke-linecap="round"/>
    <path d="M148 74 H198 M148 119 H215 M148 164 H202" stroke-linecap="round" stroke-width="16" fill="none" stroke="#102022"/>
    <path d="M148 119 H215" stroke-linecap="round" stroke-width="8" fill="none" stroke="#F4B740"/>
  </g>

  <g transform="translate(1080 35)">
    <rect x="0" y="0" width="250" height="250" rx="54" fill="#102022" filter="url(#tileShadow)"/>
    <path d="M55 56 H99 Q112 56 121 65 L142 86 Q151 95 151 108 V194 L119 176 Q99 165 99 141 V56 Z" fill="#0E5F5B"/>
    <rect x="55" y="56" width="44" height="138" rx="15" fill="#2DD4BF"/>
    <path d="M99 56 V194" stroke="#8EF7DC" stroke-width="2" opacity=".38"/>
    <rect x="146" y="75" width="52" height="15" rx="7.5" fill="#F5FFF9"/>
    <rect x="146" y="118" width="66" height="15" rx="7.5" fill="#F4B740"/>
    <rect x="146" y="161" width="56" height="15" rx="7.5" fill="#35D08F"/>
  </g>

  <g transform="translate(1340 35)">
    <rect x="0" y="0" width="180" height="180" rx="40" fill="#102022" filter="url(#tileShadow)"/>
    <rect x="39" y="39" width="30" height="102" rx="13" fill="#2DD4BF"/>
    <path d="M69 39 L95 55 Q102 60 102 69 L102 150 L69 130 Z" fill="#0F766E"/>
    <rect x="98" y="52" width="39" height="12" rx="6" fill="#F5FFF9"/>
    <rect x="98" y="84" width="50" height="12" rx="6" fill="#F4B740"/>
    <rect x="98" y="116" width="42" height="12" rx="6" fill="#35D08F"/>
  </g>
</svg>
